<?xml version="1.0" encoding="UTF-8"?>
<svg version="1.1" xmlns="http://www.w3.org/2000/svg" width="410" height="292">
<path d="M0 0 C135.3 0 270.6 0 410 0 C410 96.36 410 192.72 410 292 C274.7 292 139.4 292 0 292 C0 195.64 0 99.28 0 0 Z " fill="#00A2E8" transform="translate(0,0)"/>
<path d="M0 0 C1.051875 -0.00386719 1.051875 -0.00386719 2.125 -0.0078125 C4 0.125 4 0.125 6 1.125 C6 8.055 6 14.985 6 22.125 C12.5370285 22.08541741 12.5370285 22.08541741 19.07397461 22.03491211 C19.88358643 22.03241455 20.69319824 22.02991699 21.52734375 22.02734375 C22.77632446 22.01948853 22.77632446 22.01948853 24.05053711 22.01147461 C26 22.125 26 22.125 27 23.125 C27.09823996 24.60148876 27.12973519 26.08275417 27.125 27.5625 C27.12886719 28.76712891 27.12886719 28.76712891 27.1328125 29.99609375 C27 32.125 27 32.125 26 34.125 C19.4 34.125 12.8 34.125 6 34.125 C6 41.055 6 47.985 6 55.125 C3.75487738 56.24756131 2.48543351 56.25913762 0 56.25 C-1.051875 56.25386719 -1.051875 56.25386719 -2.125 56.2578125 C-4 56.125 -4 56.125 -6 55.125 C-6 48.195 -6 41.265 -6 34.125 C-12.16323878 34.24360744 -12.16323878 34.24360744 -18.32568359 34.39526367 C-19.09219238 34.40275635 -19.85870117 34.41024902 -20.6484375 34.41796875 C-21.82672119 34.44153442 -21.82672119 34.44153442 -23.02880859 34.46557617 C-24.00454834 34.29699097 -24.00454834 34.29699097 -25 34.125 C-27.44576827 30.45634759 -27.23607254 28.45299657 -27 24.125 C-26.67 23.465 -26.34 22.805 -26 22.125 C-19.4 22.125 -12.8 22.125 -6 22.125 C-6 15.195 -6 8.265 -6 1.125 C-3.75487738 0.00243869 -2.48543351 -0.00913762 0 0 Z " fill="#FCFEFE" transform="translate(202,115.875)"/>
</svg>
