<?xml version="1.0" encoding="UTF-8"?>
<svg version="1.1" xmlns="http://www.w3.org/2000/svg" width="410" height="292">
<path d="M0 0 C135.3 0 270.6 0 410 0 C410 96.36 410 192.72 410 292 C274.7 292 139.4 292 0 292 C0 195.64 0 99.28 0 0 Z " fill="#DDDDDD" transform="translate(0,0)"/>
<path d="M0 0 C30.69 0 61.38 0 93 0 C93 26.07 93 52.14 93 79 C87.06 79 81.12 79 75 79 C75 84.61 75 90.22 75 96 C43.98 96 12.96 96 -19 96 C-19 70.26 -19 44.52 -19 18 C-12.73 18 -6.46 18 0 18 C0 12.06 0 6.12 0 0 Z " fill="#7F7F7F" transform="translate(173,82)"/>
<path d="M0 0 C21.45 0 42.9 0 65 0 C65 16.83 65 33.66 65 51 C43.55 51 22.1 51 0 51 C0 34.17 0 17.34 0 0 Z " fill="#DEDEDE" transform="translate(178,105)"/>
<path d="M0 0 C27.39 0 54.78 0 83 0 C83 22.77 83 45.54 83 69 C78.71 69 74.42 69 70 69 C70 50.52 70 32.04 70 13 C46.9 13 23.8 13 0 13 C0 8.71 0 4.42 0 0 Z " fill="#DEDEDE" transform="translate(178,87)"/>
<path d="M0 0 C4.62 0 9.24 0 14 0 C14 18.48 14 36.96 14 56 C37.1 56 60.2 56 84 56 C84 59.96 84 63.92 84 68 C56.28 68 28.56 68 0 68 C0 45.56 0 23.12 0 0 Z " fill="#DEDEDE" transform="translate(159,105)"/>
<path d="M0 0 C1.051875 -0.00386719 1.051875 -0.00386719 2.125 -0.0078125 C4 0.125 4 0.125 6 1.125 C6 8.055 6 14.985 6 22.125 C12.5370285 22.08541741 12.5370285 22.08541741 19.07397461 22.03491211 C19.88358643 22.03241455 20.69319824 22.02991699 21.52734375 22.02734375 C22.77632446 22.01948853 22.77632446 22.01948853 24.05053711 22.01147461 C26 22.125 26 22.125 27 23.125 C27.16796875 25.12109375 27.16796875 25.12109375 27.1875 27.5625 C27.20167969 28.36558594 27.21585938 29.16867188 27.23046875 29.99609375 C27 32.125 27 32.125 25 34.125 C23.02880859 34.35205078 23.02880859 34.35205078 20.6484375 34.3203125 C19.88192871 34.31531738 19.11541992 34.31032227 18.32568359 34.30517578 C17.35195801 34.28696777 16.37823242 34.26875977 15.375 34.25 C12.28125 34.20875 9.1875 34.1675 6 34.125 C6 41.055 6 47.985 6 55.125 C3.75487738 56.24756131 2.48543351 56.25913762 0 56.25 C-1.051875 56.25386719 -1.051875 56.25386719 -2.125 56.2578125 C-4 56.125 -4 56.125 -6 55.125 C-6 48.195 -6 41.265 -6 34.125 C-12.1630183 34.20406775 -12.1630183 34.20406775 -18.32568359 34.30517578 C-19.09219238 34.3101709 -19.85870117 34.31516602 -20.6484375 34.3203125 C-21.82672119 34.33602295 -21.82672119 34.33602295 -23.02880859 34.35205078 C-25 34.125 -25 34.125 -27 32.125 C-27.23046875 30.25 -27.23046875 30.25 -27.1875 28.125 C-27.18105469 27.42375 -27.17460938 26.7225 -27.16796875 26 C-27 24.125 -27 24.125 -26 22.125 C-19.4 22.125 -12.8 22.125 -6 22.125 C-6 15.195 -6 8.265 -6 1.125 C-3.75487738 0.00243869 -2.48543351 -0.00913762 0 0 Z " fill="#807F80" transform="translate(140,161.875)"/>
</svg>
