<?xml version="1.0" encoding="UTF-8"?>
<!DOCTYPE svg PUBLIC "-//W3C//DTD SVG 1.1//EN" "http://www.w3.org/Graphics/SVG/1.1/DTD/svg11.dtd">
<svg xmlns="http://www.w3.org/2000/svg" version="1.1" width="744px" height="723px" style="shape-rendering:geometricPrecision; text-rendering:geometricPrecision; image-rendering:optimizeQuality; fill-rule:evenodd; clip-rule:evenodd" xmlns:xlink="http://www.w3.org/1999/xlink">
<g><path style="opacity:0.393" fill="#202020" d="M 280.5,38.5 C 322.501,38.3333 364.501,38.5 406.5,39C 433.308,41.8315 453.142,54.9982 466,78.5C 471.913,89.9932 478.079,101.327 484.5,112.5C 510.848,113.108 537.181,113.941 563.5,115C 598.161,121.745 622.661,141.245 637,173.5C 639.072,179.048 640.738,184.715 642,190.5C 643.13,213.803 643.63,237.136 643.5,260.5C 643.167,281.5 642.833,302.5 642.5,323.5C 629.752,314.959 616.085,308.292 601.5,303.5C 601.667,270.498 601.5,237.498 601,204.5C 596.704,178.205 581.537,162.372 555.5,157C 523.833,156.667 492.167,156.333 460.5,156C 448.126,134.085 435.626,112.252 423,90.5C 418.652,86.2415 413.486,83.4082 407.5,82C 364.833,81.3333 322.167,81.3333 279.5,82C 273.514,83.4082 268.348,86.2415 264,90.5C 251.374,112.252 238.874,134.085 226.5,156C 194.833,156.333 163.167,156.667 131.5,157C 105.463,162.372 90.2959,178.205 86,204.5C 85.3333,302.5 85.3333,400.5 86,498.5C 90.0005,523.497 104.167,539.331 128.5,546C 190.482,547.291 252.482,547.958 314.5,548C 317.623,562.036 321.956,575.703 327.5,589C 260.833,589.667 194.167,589.667 127.5,589C 88.7547,582.588 62.2547,561.088 48,524.5C 46.3503,518.568 45.017,512.568 44,506.5C 43.3333,403.5 43.3333,300.5 44,197.5C 49.9093,161.593 69.4093,136.093 102.5,121C 112.745,116.772 123.412,114.439 134.5,114C 157.174,113.833 179.841,113.333 202.5,112.5C 209.667,99.5 216.833,86.5 224,73.5C 237.354,52.9778 256.187,41.3112 280.5,38.5 Z"/></g>
<g><path style="opacity:0.39" fill="#202020" d="M 332.5,204.5 C 385.573,203.211 427.073,224.211 457,267.5C 461.789,276.704 466.289,286.037 470.5,295.5C 470.023,296.478 469.357,297.311 468.5,298C 456.608,300.963 445.275,305.296 434.5,311C 432.866,311.494 431.199,311.66 429.5,311.5C 418.098,278.6 395.431,258.1 361.5,250C 316.252,243.874 282.752,260.707 261,300.5C 244.819,341.917 252.652,378.084 284.5,409C 296.243,418.288 309.41,424.788 324,428.5C 320.295,441.64 316.961,454.973 314,468.5C 313.586,468.957 313.086,469.291 312.5,469.5C 260.54,455.373 227.374,422.373 213,370.5C 201.755,313.551 218.588,267.051 263.5,231C 284.384,216.554 307.384,207.721 332.5,204.5 Z"/></g>
<g><path style="opacity:0.397" fill="#212121" d="M 508.5,322.5 C 573.941,318.151 627.775,340.818 670,390.5C 713.01,448.24 721.677,510.907 696,578.5C 675.833,622.667 643.667,654.833 599.5,675C 531.907,700.677 469.24,692.01 411.5,649C 361.66,606.795 339.16,552.961 344,487.5C 353.649,416.202 391.149,365.702 456.5,336C 473.471,329.592 490.805,325.092 508.5,322.5 Z M 523.5,389.5 C 532.364,388.68 538.53,392.347 542,400.5C 543.46,430.125 543.96,459.791 543.5,489.5C 572.502,489.333 601.502,489.5 630.5,490C 642.473,495.126 645.64,503.626 640,515.5C 637.309,518.928 633.809,520.928 629.5,521.5C 600.852,522.476 572.185,522.809 543.5,522.5C 543.667,550.169 543.5,577.835 543,605.5C 540.106,620.365 531.606,624.865 517.5,619C 514.131,616.635 511.964,613.468 511,609.5C 510.5,580.502 510.333,551.502 510.5,522.5C 482.498,522.667 454.498,522.5 426.5,522C 410.767,517.801 406.934,508.635 415,494.5C 417.469,492.348 420.302,490.848 423.5,490C 452.498,489.5 481.498,489.333 510.5,489.5C 510.333,460.498 510.5,431.498 511,402.5C 512.682,395.653 516.849,391.32 523.5,389.5 Z"/></g>
</svg>
