<?xml version="1.0" encoding="UTF-8"?>
<svg version="1.1" xmlns="http://www.w3.org/2000/svg" width="436" height="297">
<path d="M0 0 C143.88 0 287.76 0 436 0 C436 98.01 436 196.02 436 297 C292.12 297 148.24 297 0 297 C0 198.99 0 100.98 0 0 Z " fill="#CACACA" transform="translate(0,0)"/>
<path d="M0 0 C1.26181091 -0.03212585 2.52362183 -0.06425171 3.82366943 -0.09735107 C5.20826524 -0.12032711 6.59289119 -0.14154402 7.97753906 -0.16113281 C8.6743 -0.17178017 9.37106094 -0.18242752 10.08893585 -0.19339752 C13.77864683 -0.24685635 17.46822277 -0.28560203 21.15820312 -0.31445312 C24.20890524 -0.34111669 27.25692552 -0.39676259 30.30664062 -0.47851562 C33.99219017 -0.57731129 37.67531221 -0.62670694 41.36212921 -0.64090729 C42.76414761 -0.65431205 44.16611387 -0.68470965 45.56737518 -0.7326889 C49.884955 -0.87205841 53.83774097 -0.85165291 57.99316406 0.38574219 C60.96495453 3.37027737 62.44069537 6.51295241 63.99316406 10.38574219 C64.68036966 11.64602077 65.38411772 12.89754266 66.11035156 14.13574219 C66.69042969 15.20824219 67.27050781 16.28074219 67.86816406 17.38574219 C68.76148438 19.02542969 68.76148438 19.02542969 69.67285156 20.69824219 C70.99316406 23.38574219 70.99316406 23.38574219 70.99316406 25.38574219 C72.61356094 25.37574944 72.61356094 25.37574944 74.26669312 25.36555481 C84.47655011 25.30458374 94.68636988 25.25969295 104.89636803 25.23030567 C110.14469399 25.21468919 115.39287228 25.19352459 120.64111328 25.15942383 C125.71154851 25.12668675 130.78184222 25.10885899 135.85237503 25.10111046 C137.78114676 25.09559263 139.70991125 25.08481796 141.63862228 25.06855202 C167.08093604 24.86263056 167.08093604 24.86263056 176.99316406 34.38574219 C182.18674592 40.27381464 185.10274025 44.30276522 185.15379333 52.30459595 C185.16383896 53.5410083 185.17388458 54.77742065 185.18423462 56.05130005 C185.19026467 57.42401062 185.19614967 58.79672184 185.2019043 60.16943359 C185.21144401 61.61338528 185.22133522 63.05733468 185.23155212 64.50128174 C185.26292977 69.24659516 185.28320604 73.99192604 185.30175781 78.73730469 C185.30505513 79.54525718 185.30835246 80.35320968 185.3117497 81.18564558 C185.34253498 88.80916038 185.36923617 96.43267918 185.38616848 104.05623817 C185.40806067 113.79794599 185.45000082 123.53910164 185.51960605 133.28058875 C185.5669141 140.13508245 185.59111123 146.98942757 185.59836537 153.84407938 C185.60331223 157.93527675 185.6182994 162.0258517 185.65810966 166.11687088 C185.69510966 169.96993704 185.70334285 173.82202879 185.69010353 177.67523956 C185.69015726 179.08410169 185.70036555 180.49300846 185.72185516 181.9017067 C185.87310055 192.38239784 183.90978902 198.0533732 176.86816406 205.69042969 C170.50040427 211.02342851 164.74824206 214.50144499 156.29659843 214.51996326 C155.35080103 214.52442111 154.40500362 214.52887895 153.43054569 214.53347188 C152.39457126 214.53328752 151.35859684 214.53310316 150.29122925 214.53291321 C149.18822452 214.5365899 148.08521979 214.54026658 146.94879067 214.54405469 C143.23945603 214.55509945 139.53014941 214.55893673 135.82080078 214.56274414 C133.16651747 214.56900819 130.51223715 214.57564214 127.85795593 214.58265686 C119.88324013 214.60240746 111.90852309 214.6124858 103.93378896 214.62138465 C100.17643062 214.62576994 96.41907369 214.63113614 92.66171646 214.63637352 C80.16805501 214.65338456 67.67439444 214.66787808 55.18072319 214.67512226 C51.93949253 214.67703209 48.69826188 214.67895243 45.45703125 214.6809082 C44.65145976 214.68139194 43.84588826 214.68187568 43.01590551 214.68237408 C29.97018788 214.69067196 16.924562 214.71600531 3.87888442 214.74848888 C-9.52097939 214.78158179 -22.9207966 214.79957305 -36.32070148 214.8027665 C-43.84175933 214.80492956 -51.36268336 214.81364817 -58.88370132 214.83922768 C-65.28980822 214.86096524 -71.69574878 214.86897016 -78.10188837 214.85926089 C-81.36803347 214.8547249 -84.63376501 214.8587561 -87.89987755 214.87602234 C-91.44787287 214.89372695 -94.9950031 214.88664094 -98.54299927 214.87348938 C-100.07688441 214.88994325 -100.07688441 214.88994325 -101.64175713 214.90672952 C-111.44461424 214.81923896 -119.75972472 211.87724672 -126.80661964 204.92639542 C-134.33140543 196.23730819 -135.88861118 186.40710704 -135.75146484 175.29296875 C-135.75633611 173.93620188 -135.76378961 172.57944225 -135.77359009 171.22270203 C-135.79219936 167.58002815 -135.77374243 163.93844869 -135.74692583 160.29586124 C-135.72408048 156.4630907 -135.73252789 152.63036559 -135.73641968 148.79754639 C-135.73817804 142.3689207 -135.71617712 135.94071988 -135.67919922 129.51220703 C-135.63680266 122.09962263 -135.62986378 114.68765814 -135.64232314 107.27497697 C-135.65374185 100.11214731 -135.64238702 92.94953398 -135.61997604 85.78673553 C-135.61073276 82.75184849 -135.60891492 79.71709479 -135.61314774 76.68219757 C-135.61693653 73.10644219 -135.60053272 69.53131105 -135.56902695 65.95569801 C-135.55660616 64.03125053 -135.56352011 62.10670809 -135.57116699 60.18223572 C-135.43943843 49.36893103 -132.28924582 41.40339537 -125.00683594 33.38574219 C-118.0674087 26.81330389 -110.09713089 26.11897791 -100.87792969 26.31542969 C-100.26046875 26.33863281 -99.64300781 26.36183594 -99.00683594 26.38574219 C-99.05904297 24.81373047 -99.05904297 24.81373047 -99.11230469 23.20996094 C-99.1404453 21.83107072 -99.16774517 20.45216316 -99.19433594 19.07324219 C-99.21947266 18.38294922 -99.24460938 17.69265625 -99.27050781 16.98144531 C-99.3450547 11.83770984 -99.3450547 11.83770984 -97.7353363 9.68661499 C-94.66567585 7.37638245 -90.80150838 7.96079585 -87.10449219 7.98730469 C-85.7933268 7.98299942 -85.7933268 7.98299942 -84.45567322 7.97860718 C-82.60724235 7.976566 -80.75878992 7.98209963 -78.91040039 7.99462891 C-76.0833287 8.01066283 -73.25769084 7.99479229 -70.43066406 7.97558594 C-68.63443695 7.97756874 -66.83821073 7.98141318 -65.04199219 7.98730469 C-64.19709732 7.98123199 -63.35220245 7.9751593 -62.48170471 7.96890259 C-61.29543739 7.98308731 -61.29543739 7.98308731 -60.08520508 7.99755859 C-59.39254044 7.99994537 -58.69987579 8.00233215 -57.98622131 8.00479126 C-56.00683594 8.38574219 -56.00683594 8.38574219 -52.00683594 11.38574219 C-52.00683594 16.33574219 -52.00683594 21.28574219 -52.00683594 26.38574219 C-41.44683594 26.38574219 -30.88683594 26.38574219 -20.00683594 26.38574219 C-19.34683594 24.40574219 -18.68683594 22.42574219 -18.00683594 20.38574219 C-17.2785721 18.88002477 -16.50869935 17.39356393 -15.69433594 15.93261719 C-15.25863281 15.14886719 -14.82292969 14.36511719 -14.37402344 13.55761719 C-13.92285156 12.75839844 -13.47167969 11.95917969 -13.00683594 11.13574219 C-12.55566406 10.32105469 -12.10449219 9.50636719 -11.63964844 8.66699219 C-6.87841619 0.15875468 -6.87841619 0.15875468 0 0 Z " fill="#848484" transform="translate(161.0068359375,65.6142578125)"/>
<path d="M0 0 C1.08841908 -0.00779995 2.17683817 -0.01559991 3.29823965 -0.02363622 C6.92252009 -0.04347997 10.54574162 -0.02782045 14.17002869 -0.01205444 C16.77756358 -0.01883385 19.38509368 -0.02773878 21.99261475 -0.03860474 C28.32572524 -0.06077384 34.65853854 -0.05606467 40.99166042 -0.04154153 C46.1405876 -0.03022521 51.28943179 -0.02872869 56.43836784 -0.03416061 C57.17266053 -0.03492678 57.90695321 -0.03569294 58.66349719 -0.03648233 C60.15543229 -0.03808103 61.64736737 -0.0397021 63.13930243 -0.04134528 C77.11074053 -0.05558397 91.08201428 -0.03923916 105.05342542 -0.01234345 C117.02987541 0.00999835 129.00608306 0.00610916 140.98252869 -0.01693726 C154.90731604 -0.04372053 168.8319596 -0.05421576 182.75676912 -0.03887594 C184.24274756 -0.03728327 185.72872603 -0.03571142 187.21470451 -0.03416061 C187.94574156 -0.03338924 188.6767786 -0.03261786 189.42996829 -0.03182311 C194.57054575 -0.02751402 199.71103165 -0.03477543 204.85159492 -0.04655838 C211.77516943 -0.06208024 218.69827943 -0.0509626 225.62180901 -0.0220871 C228.16103227 -0.01548187 230.70029408 -0.01736422 233.23950195 -0.02840042 C236.70893231 -0.04208827 240.17690261 -0.02489805 243.64624023 0 C244.64819571 -0.01115361 245.65015119 -0.02230722 246.68246895 -0.03379881 C253.46168958 0.06040252 258.25205015 1.62672036 263.7596283 5.63491821 C268.69174543 10.81996443 270.06051508 14.91222674 269.98667908 21.9737854 C269.98692015 22.71768147 269.98716122 23.46157753 269.98740959 24.2280159 C269.9859201 26.62939784 269.97070423 29.03046701 269.9549408 31.43179321 C269.95199923 32.9169805 269.94995949 34.40216985 269.94883728 35.88735962 C269.93836312 41.38657749 269.91044062 46.88575094 269.8846283 52.38491821 C269.8433783 64.67741821 269.8021283 76.96991821 269.7596283 89.63491821 C244.0196283 89.63491821 218.2796283 89.63491821 191.7596283 89.63491821 C191.4296283 83.36491821 191.0996283 77.09491821 190.7596283 70.63491821 C187.0422519 56.48823582 182.37677316 45.62859831 172.7596283 34.63491821 C172.22724548 34.00714478 171.69486267 33.37937134 171.14634705 32.73257446 C160.03604758 20.57465371 142.14244228 13.24437438 125.86509705 12.24038696 C105.49938578 11.55865673 87.92469614 17.69242016 72.7596283 31.63491821 C55.87176388 48.31130668 52.79936829 65.72089827 51.7596283 89.63491821 C25.6896283 89.63491821 -0.3803717 89.63491821 -27.2403717 89.63491821 C-27.3641217 77.44554321 -27.4878717 65.25616821 -27.6153717 52.69741821 C-27.66999573 48.8638269 -27.72461975 45.0302356 -27.78089905 41.08047485 C-27.80799866 36.36038208 -27.80799866 36.36038208 -27.81303406 34.14320374 C-27.82218347 32.61099256 -27.84315276 31.07882172 -27.87382507 29.54689026 C-28.18365724 13.24205031 -28.18365724 13.24205031 -23.23045105 7.52104223 C-16.53209645 1.17258808 -8.89445438 -0.09923258 0 0 Z " fill="#C9C9C9" transform="translate(65.24037170410156,102.36508178710938)"/>
<path d="M0 0 C26.73 0 53.46 0 81 0 C82.32 2.97 83.64 5.94 85 9 C89.26978152 17.38373159 94.35726778 24.34529889 101 31 C101.54011719 31.55171875 102.08023438 32.1034375 102.63671875 32.671875 C117.23828468 46.35394685 134.9858662 49.85659732 154.33203125 49.31640625 C172.52455686 48.48336593 188.75100019 40.24337344 201.01953125 26.8046875 C208.235934 18.3037337 211.25448329 10.84689535 216 0 C242.73 0 269.46 0 297 0 C297.103125 8.085 297.20625 16.17 297.3125 24.5 C297.38078003 28.3062793 297.38078003 28.3062793 297.45043945 32.18945312 C297.46505423 34.22003867 297.47779256 36.25063895 297.48828125 38.28125 C297.51386108 39.31991211 297.53944092 40.35857422 297.5657959 41.42871094 C297.57037227 49.10969339 295.8697151 54.02400512 290.48603821 59.55554199 C286.2258283 63.35747027 282.88978578 64.12102506 277.34469986 64.13701439 C276.40811924 64.14208893 275.47153862 64.14716347 274.50657678 64.15239179 C273.48091096 64.15288955 272.45524514 64.15338731 271.39849854 64.15390015 C269.76025073 64.16047353 269.76025073 64.16047353 268.088907 64.1671797 C264.41636596 64.18057183 260.74384891 64.18674749 257.07128906 64.19287109 C254.44331758 64.20077162 251.81534718 64.20904054 249.18737793 64.21765137 C241.29276681 64.24215425 233.39814945 64.25679817 225.50351202 64.26971143 C223.27342699 64.27342451 221.04334258 64.27739763 218.81325817 64.2814641 C204.96130811 64.30669863 191.10935704 64.32874914 177.25738907 64.34119225 C174.0501734 64.34412187 170.84295777 64.34708355 167.63574219 64.35009766 C166.83861792 64.35084371 166.04149365 64.35158976 165.2202141 64.35235842 C152.30568574 64.36501361 139.391295 64.39824045 126.47683099 64.43989949 C113.21483927 64.48232865 99.95291801 64.50588828 86.6908586 64.51111281 C79.24584063 64.5145255 71.80103786 64.52626407 64.35608673 64.55921555 C58.0161418 64.5872306 51.67645621 64.59820905 45.33645418 64.58702008 C42.1028727 64.58183723 38.86994739 64.58742769 35.6364212 64.60948563 C32.12697252 64.63212289 28.61889129 64.62390566 25.10943604 64.60800171 C24.0926931 64.6218838 23.07595017 64.63576588 22.02839684 64.65006864 C15.49755476 64.57716174 10.99747209 63.32988657 6 59 C1.93788468 54.38596339 -0.12936712 50.32381068 -0.11352539 44.16137695 C-0.11340454 43.16690552 -0.11328369 42.17243408 -0.11315918 41.14782715 C-0.10804321 40.105177 -0.10292725 39.06252686 -0.09765625 37.98828125 C-0.09664917 37.02805054 -0.09564209 36.06781982 -0.09460449 35.07849121 C-0.08937051 31.48981533 -0.07540925 27.90115647 -0.0625 24.3125 C-0.041875 16.289375 -0.02125 8.26625 0 0 Z " fill="#CACACA" transform="translate(38,204)"/>
<path d="M0 0 C15.66302593 -0.65977363 29.56295479 4.24034236 41.4765625 14.5546875 C48.94134006 21.59222819 55.16503243 29.40659861 58.3515625 39.2421875 C58.85042969 40.758125 58.85042969 40.758125 59.359375 42.3046875 C63.7545819 57.19295591 61.55558423 72.76135616 54.58203125 86.4765625 C52.92109746 89.19104571 51.16392051 91.71901929 49.2265625 94.2421875 C48.68128906 94.96792969 48.13601562 95.69367188 47.57421875 96.44140625 C38.75872485 107.33113401 25.96293456 114.23009573 12.2265625 116.2421875 C-0.1439504 117.3451965 -11.68857794 117.30806898 -22.7734375 111.2421875 C-24.1965625 110.48035156 -24.1965625 110.48035156 -25.6484375 109.703125 C-36.10683359 103.57334285 -44.46785364 95.16822666 -49.7734375 84.2421875 C-50.50240234 82.80746094 -50.50240234 82.80746094 -51.24609375 81.34375 C-56.85357315 68.44186146 -57.13226892 51.92271522 -52.8359375 38.5546875 C-45.51576413 21.65248944 -33.4485977 10.16269278 -16.63330078 2.97705078 C-11.10769202 0.79378977 -5.87761512 0.37723824 0 0 Z " fill="#838383" transform="translate(183.7734375,125.7578125)"/>
<path d="M0 0 C15.66302593 -0.65977363 29.56295479 4.24034236 41.4765625 14.5546875 C48.94134006 21.59222819 55.16503243 29.40659861 58.3515625 39.2421875 C58.85042969 40.758125 58.85042969 40.758125 59.359375 42.3046875 C63.7545819 57.19295591 61.55558423 72.76135616 54.58203125 86.4765625 C52.92109746 89.19104571 51.16392051 91.71901929 49.2265625 94.2421875 C48.68128906 94.96792969 48.13601562 95.69367188 47.57421875 96.44140625 C38.75872485 107.33113401 25.96293456 114.23009573 12.2265625 116.2421875 C-0.1439504 117.3451965 -11.68857794 117.30806898 -22.7734375 111.2421875 C-24.1965625 110.48035156 -24.1965625 110.48035156 -25.6484375 109.703125 C-36.10683359 103.57334285 -44.46785364 95.16822666 -49.7734375 84.2421875 C-50.50240234 82.80746094 -50.50240234 82.80746094 -51.24609375 81.34375 C-56.85357315 68.44186146 -57.13226892 51.92271522 -52.8359375 38.5546875 C-45.51576413 21.65248944 -33.4485977 10.16269278 -16.63330078 2.97705078 C-11.10769202 0.79378977 -5.87761512 0.37723824 0 0 Z M-31.98046875 33.7734375 C-38.72367426 43.05819977 -40.70151715 52.97264892 -39.7734375 64.2421875 C-37.34401568 76.681998 -31.20009814 86.91181607 -20.7734375 94.2421875 C-9.6875878 100.67967186 2.57988818 102.43224615 15.171875 99.44140625 C25.92518105 96.00271168 34.08442029 89.38387475 39.9765625 79.7421875 C45.30903171 69.07724908 47.13575473 57.68272956 44.1015625 46.0546875 C39.85561707 33.92622301 32.42127472 25.76168606 21.1015625 19.8046875 C16.72018927 17.77106898 13.10394162 16.41332361 8.2265625 16.2421875 C7.27265625 16.18160156 6.31875 16.12101563 5.3359375 16.05859375 C-10.74376067 15.42988517 -21.71133436 21.80302935 -31.98046875 33.7734375 Z " fill="#C9C9C9" transform="translate(183.7734375,125.7578125)"/>
<path d="M0 0 C2.5 1.625 2.5 1.625 3.5 3.625 C3.58675538 6.32393181 3.61557897 8.99669231 3.59765625 11.6953125 C3.5962413 12.49154022 3.59482635 13.28776794 3.59336853 14.10812378 C3.58776345 16.6554538 3.57521014 19.20269647 3.5625 21.75 C3.55748565 23.47525915 3.55292263 25.20051967 3.54882812 26.92578125 C3.53779237 31.15888791 3.52052436 35.39192914 3.5 39.625 C4.96808105 39.58572388 4.96808105 39.58572388 6.46582031 39.5456543 C10.10344505 39.45502755 13.74097046 39.39770724 17.37939453 39.3503418 C18.95280751 39.32522552 20.52610412 39.29112528 22.09912109 39.24780273 C24.36324772 39.18701601 26.62583022 39.15876418 28.890625 39.13671875 C29.94240936 39.09800911 29.94240936 39.09800911 31.01544189 39.05851746 C34.77035791 39.05637012 36.20760555 39.34153318 38.94677734 41.99707031 C40.64622517 44.8724014 40.98733864 46.38372273 40.875 49.6875 C40.86210937 50.52410156 40.84921875 51.36070313 40.8359375 52.22265625 C40.47926793 54.77325838 39.86593794 56.45015555 38.5 58.625 C35.48786971 60.13106515 32.38717378 59.74660331 29.0859375 59.72265625 C28.35629791 59.7212413 27.62665833 59.71982635 26.87490845 59.71836853 C24.54156415 59.71276531 22.20831536 59.70021235 19.875 59.6875 C18.29427222 59.68248541 16.71354293 59.67792243 15.1328125 59.67382812 C11.25517146 59.66279484 7.37760193 59.64552811 3.5 59.625 C3.52094727 60.69459961 3.54189453 61.76419922 3.56347656 62.86621094 C3.63594626 66.83938173 3.68182463 70.81249425 3.71972656 74.78613281 C3.73982628 76.50498279 3.76711089 78.22376452 3.80175781 79.94238281 C3.85035034 82.41488489 3.87298435 84.8864821 3.890625 87.359375 C3.91127014 88.12618591 3.93191528 88.89299683 3.95318604 89.68304443 C3.95468355 93.25402417 3.81943572 95.2122792 1.60058594 98.07910156 C-2.85669336 101.35937731 -7.10862955 101.11666586 -12.5 100.625 C-17.01315789 98.59868421 -17.01315789 98.59868421 -18.5 95.625 C-18.58675538 92.92606819 -18.61557897 90.25330769 -18.59765625 87.5546875 C-18.5962413 86.75845978 -18.59482635 85.96223206 -18.59336853 85.14187622 C-18.58776345 82.5945462 -18.57521014 80.04730353 -18.5625 77.5 C-18.55748565 75.77474085 -18.55292263 74.04948033 -18.54882812 72.32421875 C-18.53779237 68.09111209 -18.52052436 63.85807086 -18.5 59.625 C-19.4787207 59.65118408 -20.45744141 59.67736816 -21.46582031 59.7043457 C-25.10344505 59.79497245 -28.74097046 59.85229276 -32.37939453 59.8996582 C-33.95280751 59.92477448 -35.52610412 59.95887472 -37.09912109 60.00219727 C-39.36324772 60.06298399 -41.62583022 60.09123582 -43.890625 60.11328125 C-44.94240936 60.15199089 -44.94240936 60.15199089 -46.01544189 60.19148254 C-49.77098778 60.19363024 -51.20615741 59.91064766 -53.94238281 57.25073242 C-55.62064554 54.4216234 -56.04073241 52.88359301 -56 49.625 C-56.0103125 48.8 -56.020625 47.975 -56.03125 47.125 C-55.29080086 43.64053346 -54.06295658 42.10260961 -51.5 39.625 C-48.67955346 39.17720307 -46.4772276 39.03659457 -43.671875 39.13671875 C-42.92286926 39.14379349 -42.17386353 39.15086823 -41.40216064 39.15815735 C-39.01707763 39.18607862 -36.63436944 39.24880465 -34.25 39.3125 C-32.63024232 39.33758618 -31.01044772 39.3603988 -29.390625 39.38085938 C-25.42617261 39.43589675 -21.46348847 39.52214678 -17.5 39.625 C-17.52618408 38.48957764 -17.55236816 37.35415527 -17.5793457 36.18432617 C-17.66979777 31.97456544 -17.72723044 27.76489063 -17.7746582 23.55444336 C-17.79981397 21.73170533 -17.83394285 19.90906828 -17.87719727 18.08666992 C-17.93780546 15.46768307 -17.96619761 12.85002847 -17.98828125 10.23046875 C-18.01408768 9.41474899 -18.0398941 8.59902924 -18.06648254 7.7585907 C-18.06762695 5.45385742 -18.06762695 5.45385742 -17.5 1.625 C-12.23000918 -2.81331198 -6.14861346 -2.41552672 0 0 Z " fill="#848484" transform="translate(373.5,15.375)"/>
<path d="M0 0 C1.21641174 -0.01418472 1.21641174 -0.01418472 2.45739746 -0.02865601 C3.76529236 -0.01954697 3.76529236 -0.01954697 5.09960938 -0.01025391 C6.44762634 -0.01455917 6.44762634 -0.01455917 7.82287598 -0.01895142 C9.72258128 -0.02099256 11.62230758 -0.01545919 13.52197266 -0.00292969 C16.43244347 0.01312339 19.34152558 -0.00277653 22.25195312 -0.02197266 C24.09700828 -0.01999023 25.94206257 -0.01614658 27.78710938 -0.01025391 C28.65903931 -0.0163266 29.53096924 -0.02239929 30.42932129 -0.02865601 C31.24026245 -0.01919952 32.05120361 -0.00974304 32.88671875 0 C33.5993689 0.00238678 34.31201904 0.00477356 35.04626465 0.00723267 C37.52103839 0.5041859 38.41508599 1.41191422 39.94335938 3.38818359 C40.33154297 6.06787109 40.33154297 6.06787109 40.34179688 9.26318359 C40.34759766 10.98794922 40.34759766 10.98794922 40.35351562 12.74755859 C40.34191406 13.94896484 40.3303125 15.15037109 40.31835938 16.38818359 C40.32996094 17.58958984 40.3415625 18.79099609 40.35351562 20.02880859 C40.34964844 21.17865234 40.34578125 22.32849609 40.34179688 23.51318359 C40.33841309 24.56763672 40.3350293 25.62208984 40.33154297 26.70849609 C39.88119772 29.81729451 39.36486274 30.48828739 36.94335938 32.38818359 C35.04626465 32.76913452 35.04626465 32.76913452 32.88671875 32.77636719 C31.67030701 32.79055191 31.67030701 32.79055191 30.42932129 32.80502319 C29.55739136 32.7989505 28.68546143 32.79287781 27.78710938 32.78662109 C26.43909241 32.79092636 26.43909241 32.79092636 25.06384277 32.7953186 C23.16413747 32.79735975 21.26441117 32.79182638 19.36474609 32.77929688 C16.45427528 32.7632438 13.54519317 32.77914372 10.63476562 32.79833984 C8.78971047 32.79635742 6.94465618 32.79251376 5.09960938 32.78662109 C3.79171448 32.79573013 3.79171448 32.79573013 2.45739746 32.80502319 C1.24098572 32.79083847 1.24098572 32.79083847 0 32.77636719 C-1.06897522 32.77278702 -1.06897522 32.77278702 -2.1595459 32.76913452 C-4.63431964 32.27218129 -5.52836724 31.36445296 -7.05664062 29.38818359 C-7.44482422 26.70849609 -7.44482422 26.70849609 -7.45507812 23.51318359 C-7.45894531 22.36333984 -7.4628125 21.21349609 -7.46679688 20.02880859 C-7.45519531 18.82740234 -7.44359375 17.62599609 -7.43164062 16.38818359 C-7.44324219 15.18677734 -7.45484375 13.98537109 -7.46679688 12.74755859 C-7.46292969 11.59771484 -7.4590625 10.44787109 -7.45507812 9.26318359 C-7.45169434 8.20873047 -7.44831055 7.15427734 -7.44482422 6.06787109 C-6.78008261 1.47906361 -4.48708374 0.01502796 0 0 Z " fill="#838383" transform="translate(281.056640625,113.61181640625)"/>
<path d="M0 0 C16.83 0 33.66 0 51 0 C57 11 57 11 57 13 C36.21 13 15.42 13 -6 13 C-4.22749825 8.56874563 -2.13437475 4.26874949 0 0 Z " fill="#CACACA" transform="translate(161,78)"/>
<path d="M0 0 C0.89432739 -0.00630432 1.78865479 -0.01260864 2.71008301 -0.019104 C4.16166809 -0.01303131 4.16166809 -0.01303131 5.64257812 -0.00683594 C6.6338269 -0.00874939 7.62507568 -0.01066284 8.6463623 -0.01263428 C10.7445501 -0.01399679 12.84274631 -0.01029576 14.94091797 -0.00195312 C18.16067358 0.00874535 21.37987121 -0.0018463 24.59960938 -0.01464844 C26.63476686 -0.01332685 28.669924 -0.01076449 30.70507812 -0.00683594 C31.67280151 -0.0108844 32.6405249 -0.01493286 33.63757324 -0.019104 C34.53190063 -0.01279968 35.42622803 -0.00649536 36.34765625 0 C37.13660278 0.00159119 37.92554932 0.00318237 38.73840332 0.00482178 C40.67382812 0.25878906 40.67382812 0.25878906 42.67382812 2.25878906 C43.04882812 5.69628906 43.04882812 5.69628906 42.67382812 9.25878906 C40.90389974 11.35806964 39.42967749 12.15311541 36.70797729 12.53363037 C34.20054346 12.65740407 31.71162408 12.67438218 29.20117188 12.65722656 C28.2817128 12.66009674 27.36225372 12.66296692 26.41493225 12.66592407 C24.47412499 12.66796298 22.5332971 12.66244521 20.5925293 12.64990234 C17.61851215 12.63382789 14.64585025 12.64976631 11.671875 12.66894531 C9.78580429 12.66696321 7.89973442 12.66312022 6.01367188 12.65722656 C5.12300522 12.66329926 4.23233856 12.66937195 3.31468201 12.67562866 C2.48694778 12.66617218 1.65921356 12.6567157 0.80639648 12.64697266 C-0.28470177 12.64339249 -0.28470177 12.64339249 -1.39784241 12.63973999 C-3.91922595 12.14162833 -4.80530846 11.30678528 -6.32617188 9.25878906 C-6.63867188 5.69628906 -6.63867188 5.69628906 -6.32617188 2.25878906 C-3.90230842 -0.16507439 -3.31555775 0.00668698 0 0 Z " fill="#848484" transform="translate(67.326171875,117.7412109375)"/>
<path d="M0 0 C3.72706672 1.00319683 5.61488788 2.87215461 8.29296875 5.6171875 C9.82894329 8.68913658 9.51947255 11.21963043 9.29296875 14.6171875 C7.71721275 18.7141531 6.25391177 21.58318973 2.29296875 23.6171875 C-2.26665336 24.64677959 -4.59591014 24.99454939 -9.01953125 23.4921875 C-12.14505924 21.31158658 -13.3405784 20.18514771 -14.70703125 16.6171875 C-15.21639449 13.18181544 -15.32121722 10.04310558 -14.70703125 6.6171875 C-10.38697516 1.0127904 -6.84345847 -0.91543816 0 0 Z " fill="#C8C8C8" transform="translate(189.70703125,159.3828125)"/>
<path d="M0 0 C7.59 0 15.18 0 23 0 C23 2.64 23 5.28 23 8 C15.41 8 7.82 8 0 8 C0 5.36 0 2.72 0 0 Z " fill="#C4C4C4" transform="translate(286,126)"/>
<path d="M0 0 C7.59 0 15.18 0 23 0 C23 1.98 23 3.96 23 6 C15.41 6 7.82 6 0 6 C0 4.02 0 2.04 0 0 Z " fill="#C0C0C0" transform="translate(74,86)"/>
</svg>
